<svg width="27" height="27" xmlns="http://www.w3.org/2000/svg" xmlns:xlink="http://www.w3.org/1999/xlink"><use xlink:href="#path0_fill" fill="#E6A74D"/><use xlink:href="#path1_fill" transform="translate(6.5 6.544)" fill="#E6A74D"/><use xlink:href="#path2_fill" transform="translate(19.05 4.653)" fill="#E6A74D"/><defs><path id="path0_fill" d="M19.196 0H7.804A7.8 7.8 0 0 0 0 7.804v11.392A7.8 7.8 0 0 0 7.804 27h11.392A7.8 7.8 0 0 0 27 19.196V7.804C26.951 3.49 23.461 0 19.196 0zm5.283 19.39a5.193 5.193 0 0 1-5.186 5.186H7.659c-2.86-.048-5.187-2.326-5.187-5.186V7.707c0-2.86 2.327-5.138 5.187-5.138H19.34a5.193 5.193 0 0 1 5.187 5.187V19.39h-.049z"/><path id="path1_fill" d="M6.98 0C3.102 0 0 3.15 0 6.98c0 3.83 3.15 6.98 6.98 6.98 3.878 0 6.98-3.15 6.98-6.98C13.96 3.15 10.858 0 6.98 0zm0 11.537A4.551 4.551 0 0 1 2.424 6.98 4.551 4.551 0 0 1 6.98 2.424a4.551 4.551 0 0 1 4.557 4.556 4.551 4.551 0 0 1-4.557 4.557z"/><path id="path2_fill" d="M1.648 3.296a1.648 1.648 0 1 0 0-3.296 1.648 1.648 0 0 0 0 3.296z"/></defs></svg>