<svg width="18" height="18" xmlns="http://www.w3.org/2000/svg" xmlns:xlink="http://www.w3.org/1999/xlink"><use xlink:href="#path0_stroke" transform="translate(1 1)" fill="#E6A74D"/><use xlink:href="#path1_stroke" transform="translate(12.6 5.8)" fill="#E6A74D"/><use xlink:href="#path2_stroke" transform="translate(5.4 5.4)" fill="#E6A74D"/><defs><path id="path0_stroke" d="M15.25 9.6a.75.75 0 0 0 1.5 0h-1.5zM8 16.75a.75.75 0 0 0 0-1.5v1.5zm8-7.15h.75V8h-1.5v1.6H16zm.75-1.6A8.75 8.75 0 0 0 8-.75v1.5A7.25 7.25 0 0 1 15.25 8h1.5zM8-.75A8.75 8.75 0 0 0-.75 8h1.5A7.25 7.25 0 0 1 8 .75v-1.5zM-.75 8A8.75 8.75 0 0 0 8 16.75v-1.5A7.25 7.25 0 0 1 .75 8h-1.5z"/><path id="path1_stroke" d="M.75 0a.75.75 0 1 0-1.5 0h1.5zm4.4 4.8a.75.75 0 0 0-1.5 0h1.5zM-.75 0v4.8h1.5V0h-1.5zm0 4.8c0 1.584 1.39 2.75 2.95 2.75v-1.5C1.33 6.05.75 5.425.75 4.8h-1.5zM2.2 7.55c1.56 0 2.95-1.166 2.95-2.75h-1.5c0 .625-.58 1.25-1.45 1.25v1.5z"/><path id="path2_stroke" d="M3.6 7.95A4.35 4.35 0 0 0 7.95 3.6h-1.5A2.85 2.85 0 0 1 3.6 6.45v1.5zM7.95 3.6A4.35 4.35 0 0 0 3.6-.75v1.5A2.85 2.85 0 0 1 6.45 3.6h1.5zM3.6-.75A4.35 4.35 0 0 0-.75 3.6h1.5A2.85 2.85 0 0 1 3.6.75v-1.5zM-.75 3.6A4.35 4.35 0 0 0 3.6 7.95v-1.5A2.85 2.85 0 0 1 .75 3.6h-1.5z"/></defs></svg>