<svg width="17" height="15" viewBox="0 0 17 15" xmlns="http://www.w3.org/2000/svg" xmlns:xlink="http://www.w3.org/1999/xlink"><title>logout</title><desc>Created using Figma</desc><use xlink:href="#a" fill="#453F40"/><defs><path id="a" d="M13.256 8.656H1.092a1.05 1.05 0 0 1-.419-.088 1.09 1.09 0 0 1-.355-.25 1.157 1.157 0 0 1-.236-.376A1.205 1.205 0 0 1 0 7.5c0-.639.494-1.156 1.092-1.156h12.163l-4.16-4.385a1.19 1.19 0 0 1-.307-.813c.002-.303.118-.593.321-.807A1.07 1.07 0 0 1 9.875 0c.288-.003.565.114.771.325l6.033 6.358c.206.216.321.51.321.817 0 .307-.116.6-.321.817l-6.032 6.358a1.066 1.066 0 0 1-.772.325 1.07 1.07 0 0 1-.766-.339 1.188 1.188 0 0 1-.321-.807 1.19 1.19 0 0 1 .308-.813l4.16-4.385z"/></defs></svg>