<svg width="22" height="22" viewBox="0 0 22 22" version="1.1" xmlns="http://www.w3.org/2000/svg" xmlns:xlink="http://www.w3.org/1999/xlink">
<title>globe</title>
<desc>Created using Figma</desc>
<g id="Canvas" transform="translate(-341 -1906)">
<g id="globe">
<g id="Oval 7">
<use xlink:href="#path0_stroke" transform="translate(342 1907)" fill="#E6A74D"/>
</g>
<g id="Oval 7 Copy">
<use xlink:href="#path1_stroke" transform="translate(346.5 1907)" fill="#E6A74D"/>
</g>
<g id="Line">
<use xlink:href="#path2_stroke" transform="translate(342.5 1916.5)" fill="#E6A74D"/>
</g>
<g id="Line">
<use xlink:href="#path3_stroke" transform="translate(351.5 1907.5)" fill="#E6A74D"/>
</g>
</g>
</g>
<defs>
<path id="path0_stroke" d="M 10 21C 16.0751 21 21 16.0751 21 10L 19 10C 19 14.9706 14.9706 19 10 19L 10 21ZM 21 10C 21 3.92487 16.0751 -1 10 -1L 10 1C 14.9706 1 19 5.02944 19 10L 21 10ZM 10 -1C 3.92487 -1 -1 3.92487 -1 10L 1 10C 1 5.02944 5.02944 1 10 1L 10 -1ZM -1 10C -1 16.0751 3.92487 21 10 21L 10 19C 5.02944 19 1 14.9706 1 10L -1 10Z"/>
<path id="path1_stroke" d="M 5.5 21C 7.55201 21 9.19411 19.5006 10.2653 17.553C 11.3563 15.5694 12 12.8971 12 10L 10 10C 10 12.6258 9.41248 14.9535 8.51287 16.5891C 7.59346 18.2608 6.48556 19 5.5 19L 5.5 21ZM 12 10C 12 7.10293 11.3563 4.43064 10.2653 2.44701C 9.19411 0.499388 7.55201 -1 5.5 -1L 5.5 1C 6.48556 1 7.59346 1.73919 8.51287 3.41085C 9.41248 5.04651 10 7.37422 10 10L 12 10ZM 5.5 -1C 3.44799 -1 1.80589 0.499388 0.734697 2.44701C -0.3563 4.43064 -1 7.10293 -1 10L 1 10C 1 7.37422 1.58752 5.04651 2.48713 3.41085C 3.40654 1.73919 4.51444 1 5.5 1L 5.5 -1ZM -1 10C -1 12.8971 -0.3563 15.5694 0.734697 17.553C 1.80589 19.5006 3.44799 21 5.5 21L 5.5 19C 4.51444 19 3.40654 18.2608 2.48713 16.5891C 1.58752 14.9535 1 12.6258 1 10L -1 10Z"/>
<path id="path2_stroke" d="M 0 -0.5C -0.552285 -0.5 -1 -0.0522848 -1 0.5C -1 1.05228 -0.552285 1.5 0 1.5L 0 -0.5ZM 19 1.5C 19.5523 1.5 20 1.05228 20 0.5C 20 -0.0522848 19.5523 -0.5 19 -0.5L 19 1.5ZM 0 1.5L 19 1.5L 19 -0.5L 0 -0.5L 0 1.5Z"/>
<path id="path3_stroke" d="M 1.5 0C 1.5 -0.552285 1.05228 -1 0.5 -1C -0.0522848 -1 -0.5 -0.552285 -0.5 0L 1.5 0ZM -0.5 18.5C -0.5 19.0523 -0.0522848 19.5 0.5 19.5C 1.05228 19.5 1.5 19.0523 1.5 18.5L -0.5 18.5ZM -0.5 0L -0.5 18.5L 1.5 18.5L 1.5 0L -0.5 0Z"/>
</defs>
</svg>
