<svg width="22" height="22" viewBox="0 0 22 22" version="1.1" xmlns="http://www.w3.org/2000/svg" xmlns:xlink="http://www.w3.org/1999/xlink">
<title>pen-1</title>
<desc>Created using Figma</desc>
<g id="Canvas" transform="translate(-912 -1906)">
<g id="pen-1">
<g id="Rectangle 19">
<use xlink:href="#path0_stroke" transform="translate(913 1910)" fill="#E6A74D"/>
</g>
<g id="Oval">
<use xlink:href="#path1_fill" transform="translate(920 1916)" fill="#E6A74D"/>
</g>
<g id="Line">
<use xlink:href="#path2_stroke" transform="translate(914.5 1918)" fill="#E6A74D"/>
</g>
<g id="Combined Shape">
<use xlink:href="#path3_stroke" transform="translate(924.501 1907)" fill="#E6A74D"/>
</g>
</g>
</g>
<defs>
<path id="path0_stroke" d="M 11.5007 0L 12.2078 -0.707128C 11.9447 -0.970141 11.5575 -1.06543 11.2024 -0.954485L 11.5007 0ZM 17.001 5.5L 17.9555 5.79829C 18.0664 5.44323 17.9711 5.05591 17.7081 4.79287L 17.001 5.5ZM 14.5009 13.5L 14.7355 14.4721C 15.0772 14.3896 15.3505 14.1338 15.4553 13.7983L 14.5009 13.5ZM 0 17L -0.972079 16.7653C -1.05382 17.104 -0.953445 17.4608 -0.707116 17.7071C -0.460787 17.9534 -0.104014 18.0538 0.234628 17.9721L 0 17ZM 3.50021 2.5L 3.20195 1.54552C 2.86644 1.65036 2.61061 1.92365 2.52813 2.26535L 3.50021 2.5ZM 10.7936 0.707128L 16.2939 6.20713L 17.7081 4.79287L 12.2078 -0.707128L 10.7936 0.707128ZM 16.0465 5.20171L 13.5464 13.2017L 15.4553 13.7983L 17.9555 5.79829L 16.0465 5.20171ZM 14.2662 12.5279L -0.234628 16.0279L 0.234628 17.9721L 14.7355 14.4721L 14.2662 12.5279ZM 0.972079 17.2347L 4.47229 2.73465L 2.52813 2.26535L -0.972079 16.7653L 0.972079 17.2347ZM 3.79847 3.45449L 11.7989 0.954485L 11.2024 -0.954485L 3.20195 1.54552L 3.79847 3.45449Z"/>
<path id="path1_fill" fill-rule="evenodd" d="M 2.00012 4C 3.10475 4 4.00024 3.10457 4.00024 2C 4.00024 0.89543 3.10475 0 2.00012 0C 0.895483 0 0 0.89543 0 2C 0 3.10457 0.895483 4 2.00012 4Z"/>
<path id="path2_stroke" d="M 8.20753 0.707128L 8.91466 4.16736e-05L 7.50048 -1.41421L 6.79336 -0.707128L 8.20753 0.707128ZM -0.707086 6.79287L -1.41421 7.49996L -4.16736e-05 8.91421L 0.707086 8.20713L -0.707086 6.79287ZM 6.79336 -0.707128L -0.707086 6.79287L 0.707086 8.20713L 8.20753 0.707128L 6.79336 -0.707128Z"/>
<path id="path3_stroke" d="M 2.09525 0.472147L 1.38817 -0.23498C 1.36616 -0.212979 1.3452 -0.189962 1.32534 -0.166005L 2.09525 0.472147ZM 4.38018 0.475132L 3.67309 1.18226L 4.38018 0.475132ZM 8.02534 4.12008L 8.73243 3.41295L 8.02534 4.12008ZM 8.02833 6.40487L 8.66643 7.17482C 8.69039 7.15496 8.71341 7.134 8.73541 7.112L 8.02833 6.40487ZM 5.50032 8.5L 4.79324 9.20713C 5.15823 9.5721 5.74102 9.59931 6.13843 9.26995L 5.50032 8.5ZM 0 3L -0.76991 2.36185C -1.09933 2.75928 -1.07211 3.34213 -0.707086 3.70713L 0 3ZM 2.80234 1.17927C 3.04069 0.940933 3.42937 0.938556 3.67309 1.18226L 5.08727 -0.231995C 4.06504 -1.25416 2.41009 -1.25685 1.38817 -0.23498L 2.80234 1.17927ZM 3.67309 1.18226L 7.31825 4.82721L 8.73243 3.41295L 5.08727 -0.231995L 3.67309 1.18226ZM 7.31825 4.82721C 7.56044 5.06938 7.55792 5.46108 7.32124 5.69775L 8.73541 7.112C 9.7551 6.09237 9.75382 4.43428 8.73243 3.41295L 7.31825 4.82721ZM 7.39022 5.63493L 4.86222 7.73005L 6.13843 9.26995L 8.66643 7.17482L 7.39022 5.63493ZM 6.20741 7.79287L 0.707086 2.29287L -0.707086 3.70713L 4.79324 9.20713L 6.20741 7.79287ZM 0.76991 3.63815L 2.86516 1.1103L 1.32534 -0.166005L -0.76991 2.36185L 0.76991 3.63815Z"/>
</defs>
</svg>
