<svg width="22" height="22" viewBox="0 0 22 22" version="1.1" xmlns="http://www.w3.org/2000/svg" xmlns:xlink="http://www.w3.org/1999/xlink">
<title>chart-diagram-1</title>
<desc>Created using Figma</desc>
<g id="Canvas" transform="translate(-903 -1576)">
<g id="chart-diagram-1">
<g id="Combined Shape">
<use xlink:href="#path0_stroke" transform="translate(904 1580)" fill="#E6A74D"/>
</g>
<g id="Combined Shape">
<use xlink:href="#path1_stroke" transform="translate(915.5 1577)" fill="#E6A74D"/>
</g>
</g>
</g>
<defs>
<path id="path0_stroke" d="M 8.5 0L 9.5 0C 9.5 -0.552285 9.05229 -1 8.5 -1L 8.5 0ZM 17 8.5L 18 8.5C 18 7.94772 17.5523 7.5 17 7.5L 17 8.5ZM 8.5 8.5L 7.5 8.5C 7.5 9.05229 7.94772 9.5 8.5 9.5L 8.5 8.5ZM 8.5 -1C 3.25329 -1 -1 3.25329 -1 8.5L 1 8.5C 1 4.35786 4.35786 1 8.5 1L 8.5 -1ZM -1 8.5C -1 13.7467 3.25329 18 8.5 18L 8.5 16C 4.35786 16 1 12.6421 1 8.5L -1 8.5ZM 8.5 18C 13.7467 18 18 13.7467 18 8.5L 16 8.5C 16 12.6421 12.6421 16 8.5 16L 8.5 18ZM 17 7.5L 8.5 7.5L 8.5 9.5L 17 9.5L 17 7.5ZM 9.5 8.5L 9.5 0L 7.5 0L 7.5 8.5L 9.5 8.5Z"/>
<path id="path1_stroke" d="M 0 0L 0 -1C -0.552285 -1 -1 -0.552285 -1 2.22045e-16L 0 0ZM 8.5 8.5L 8.5 9.5C 9.05229 9.5 9.5 9.05229 9.5 8.5L 8.5 8.5ZM 0 8.5L -1 8.5C -1 9.05229 -0.552285 9.5 2.22045e-16 9.5L 0 8.5ZM 0 1C 4.14214 1 7.5 4.35786 7.5 8.5L 9.5 8.5C 9.5 3.25329 5.24671 -1 0 -1L 0 1ZM 8.5 7.5L 0 7.5L 0 9.5L 8.5 9.5L 8.5 7.5ZM 1 8.5L 1 0L -1 0L -1 8.5L 1 8.5Z"/>
</defs>
</svg>
