<svg width="18" height="22" viewBox="0 0 18 22" version="1.1" xmlns="http://www.w3.org/2000/svg" xmlns:xlink="http://www.w3.org/1999/xlink">
<title>shop-check</title>
<desc>Created using Figma</desc>
<g id="Canvas" transform="translate(-180 -1446)">
<g id="shop-check">
<g id="Rectangle 59">
<use xlink:href="#path0_stroke" transform="translate(181 1447)" fill="#E6A74D"/>
</g>
<g id="Line">
<use xlink:href="#path1_stroke" transform="translate(185.5 1451.5)" fill="#E6A74D"/>
</g>
<g id="Line Copy">
<use xlink:href="#path1_stroke" transform="translate(185.5 1455)" fill="#E6A74D"/>
</g>
<g id="Line Copy 2">
<use xlink:href="#path2_stroke" transform="translate(185.5 1458.5)" fill="#E6A74D"/>
</g>
</g>
</g>
<defs>
<path id="path0_stroke" d="M 16 20L 15.5528 20.8944C 15.8628 21.0494 16.2309 21.0329 16.5257 20.8507C 16.8205 20.6684 17 20.3466 17 20L 16 20ZM 14 19L 14.4472 18.1056C 14.1657 17.9648 13.8343 17.9648 13.5528 18.1056L 14 19ZM 12 20L 11.5528 20.8944C 11.8343 21.0352 12.1657 21.0352 12.4472 20.8944L 12 20ZM 10 19L 10.4472 18.1056C 10.1657 17.9648 9.83431 17.9648 9.55279 18.1056L 10 19ZM 8 20L 7.55279 20.8944C 7.83431 21.0352 8.16569 21.0352 8.44721 20.8944L 8 20ZM 6 19L 6.44721 18.1056C 6.16569 17.9648 5.83431 17.9648 5.55279 18.1056L 6 19ZM 4 20L 3.55279 20.8944C 3.83431 21.0352 4.16569 21.0352 4.44721 20.8944L 4 20ZM 2 19L 2.44721 18.1056C 2.16569 17.9648 1.83431 17.9648 1.55279 18.1056L 2 19ZM 0 20L -1 20C -1 20.3466 -0.820548 20.6684 -0.525731 20.8507C -0.230915 21.0329 0.137225 21.0494 0.447214 20.8944L 0 20ZM 3 1L 13 1L 13 -1L 3 -1L 3 1ZM 15 3L 15 20L 17 20L 17 3L 15 3ZM 16.4472 19.1056L 14.4472 18.1056L 13.5528 19.8944L 15.5528 20.8944L 16.4472 19.1056ZM 13.5528 18.1056L 11.5528 19.1056L 12.4472 20.8944L 14.4472 19.8944L 13.5528 18.1056ZM 12.4472 19.1056L 10.4472 18.1056L 9.55279 19.8944L 11.5528 20.8944L 12.4472 19.1056ZM 9.55279 18.1056L 7.55279 19.1056L 8.44721 20.8944L 10.4472 19.8944L 9.55279 18.1056ZM 8.44721 19.1056L 6.44721 18.1056L 5.55279 19.8944L 7.55279 20.8944L 8.44721 19.1056ZM 5.55279 18.1056L 3.55279 19.1056L 4.44721 20.8944L 6.44721 19.8944L 5.55279 18.1056ZM 4.44721 19.1056L 2.44721 18.1056L 1.55279 19.8944L 3.55279 20.8944L 4.44721 19.1056ZM 1.55279 18.1056L -0.447214 19.1056L 0.447214 20.8944L 2.44721 19.8944L 1.55279 18.1056ZM 1 20L 1 3L -1 3L -1 20L 1 20ZM 13 1C 14.1046 1 15 1.89543 15 3L 17 3C 17 0.790861 15.2091 -1 13 -1L 13 1ZM 3 -1C 0.790861 -1 -1 0.790861 -1 3L 1 3C 1 1.89543 1.89543 1 3 1L 3 -1Z"/>
<path id="path1_stroke" d="M 0 -0.5C -0.552285 -0.5 -1 -0.0522848 -1 0.5C -1 1.05228 -0.552285 1.5 0 1.5L 0 -0.5ZM 7 1.5C 7.55228 1.5 8 1.05228 8 0.5C 8 -0.0522848 7.55228 -0.5 7 -0.5L 7 1.5ZM 0 1.5L 7 1.5L 7 -0.5L 0 -0.5L 0 1.5Z"/>
<path id="path2_stroke" d="M 0 -0.5C -0.552285 -0.5 -1 -0.0522848 -1 0.5C -1 1.05228 -0.552285 1.5 0 1.5L 0 -0.5ZM 4 1.5C 4.55228 1.5 5 1.05228 5 0.5C 5 -0.0522848 4.55228 -0.5 4 -0.5L 4 1.5ZM 0 1.5L 4 1.5L 4 -0.5L 0 -0.5L 0 1.5Z"/>
</defs>
</svg>
