<svg width="22" height="22" viewBox="0 0 22 22" version="1.1" xmlns="http://www.w3.org/2000/svg" xmlns:xlink="http://www.w3.org/1999/xlink">
<title>microphone-1</title>
<desc>Created using Figma</desc>
<g id="Canvas" transform="translate(-331 -1676)">
<g id="microphone-1">
<g id="Combined Shape">
<use xlink:href="#path0_stroke" transform="translate(332 1683.96)" fill="#E6A74D"/>
</g>
<g id="Line">
<use xlink:href="#path1_stroke" transform="translate(336.889 1691.35)" fill="#E6A74D"/>
</g>
<g id="Oval 20">
<use xlink:href="#path2_stroke" transform="translate(341.333 1677)" fill="#E6A74D"/>
</g>
</g>
</g>
<defs>
<path id="path0_stroke" d="M 13.3333 4.27881L 14.0326 4.99365C 14.2249 4.80552 14.3333 4.54784 14.3333 4.27881C 14.3333 4.00979 14.2249 3.75211 14.0326 3.56398L 13.3333 4.27881ZM 8.95944 0L 9.65873 -0.714834C 9.27006 -1.09506 8.64881 -1.09506 8.26014 -0.714834L 8.95944 0ZM 1.16313 7.62682L 1.78135 8.41283C 1.80963 8.39058 1.8367 8.36682 1.86242 8.34166L 1.16313 7.62682ZM 5.53703 11.9056L 4.83773 11.1908C 4.81189 11.2161 4.78743 11.2428 4.76447 11.2707L 5.53703 11.9056ZM 14.0326 3.56398L 9.65873 -0.714834L 8.26014 0.714834L 12.634 4.99365L 14.0326 3.56398ZM 8.26014 -0.714834L 0.463833 6.91199L 1.86242 8.34166L 9.65873 0.714834L 8.26014 -0.714834ZM 0.544905 6.84082C -0.391074 7.577 -1 8.71605 -1 10L 1 10C 1 9.36489 1.29889 8.7923 1.78135 8.41283L 0.544905 6.84082ZM -1 10C -1 12.2538 0.861441 14.0435 3.11111 14.0435L 3.11111 12.0435C 1.92434 12.0435 1 11.108 1 10L -1 10ZM 3.11111 14.0435C 4.39916 14.0435 5.55457 13.4592 6.30958 12.5406L 4.76447 11.2707C 4.37903 11.7397 3.78477 12.0435 3.11111 12.0435L 3.11111 14.0435ZM 6.23632 12.6205L 14.0326 4.99365L 12.634 3.56398L 4.83773 11.1908L 6.23632 12.6205Z"/>
<path id="path1_stroke" d="M -0.699294 0.154731C -1.09409 0.540941 -1.10104 1.17407 -0.714834 1.56886C -0.328625 1.96365 0.304502 1.97061 0.699294 1.5844L -0.699294 0.154731ZM 1.58818 0.714834C 1.98298 0.328625 1.98993 -0.304502 1.60372 -0.699294C 1.21751 -1.09409 0.584387 -1.10104 0.189595 -0.714834L 1.58818 0.714834ZM 0.699294 1.5844L 1.58818 0.714834L 0.189595 -0.714834L -0.699294 0.154731L 0.699294 1.5844Z"/>
<path id="path2_stroke" d="M 5.33333 11.4348C 8.8103 11.4348 11.6667 8.67177 11.6667 5.21739L 9.66667 5.21739C 9.66667 7.52599 7.7474 9.43478 5.33333 9.43478L 5.33333 11.4348ZM 11.6667 5.21739C 11.6667 1.76301 8.8103 -1 5.33333 -1L 5.33333 1C 7.7474 1 9.66667 2.9088 9.66667 5.21739L 11.6667 5.21739ZM 5.33333 -1C 1.85636 -1 -1 1.76301 -1 5.21739L 1 5.21739C 1 2.9088 2.91927 1 5.33333 1L 5.33333 -1ZM -1 5.21739C -1 8.67177 1.85636 11.4348 5.33333 11.4348L 5.33333 9.43478C 2.91927 9.43478 1 7.52599 1 5.21739L -1 5.21739Z"/>
</defs>
</svg>
