<svg width="22" height="22" viewBox="0 0 22 22" version="1.1" xmlns="http://www.w3.org/2000/svg" xmlns:xlink="http://www.w3.org/1999/xlink">
<title>flag-1</title>
<desc>Created using Figma</desc>
<g id="Canvas" transform="translate(-438 -1446)">
<g id="flag-1">
<g id="Rectangle 35">
<use xlink:href="#path0_stroke" transform="translate(439 1447)" fill="#E6A74D"/>
</g>
<g id="Rectangle 36">
<use xlink:href="#path1_stroke" transform="translate(440 1458)" fill="#E6A74D"/>
</g>
</g>
</g>
<defs>
<path id="path0_stroke" d="M 20 0L 20.8779 0.478852C 21.0469 0.16901 21.0401 -0.206974 20.8599 -0.510464C 20.6797 -0.813954 20.3529 -1 20 -1L 20 0ZM 17 5.5L 16.1221 5.02115C 15.9593 5.31963 15.9593 5.68037 16.1221 5.97885L 17 5.5ZM 20 11L 20 12C 20.3529 12 20.6797 11.814 20.8599 11.5105C 21.0401 11.207 21.0469 10.831 20.8779 10.5211L 20 11ZM 3 1L 20 1L 20 -1L 3 -1L 3 1ZM 19.1221 -0.478852L 16.1221 5.02115L 17.8779 5.97885L 20.8779 0.478852L 19.1221 -0.478852ZM 16.1221 5.97885L 19.1221 11.4789L 20.8779 10.5211L 17.8779 5.02115L 16.1221 5.97885ZM 20 10L 3 10L 3 12L 20 12L 20 10ZM 1 8L 1 3L -1 3L -1 8L 1 8ZM 3 10C 1.89543 10 1 9.10457 1 8L -1 8C -1 10.2091 0.790861 12 3 12L 3 10ZM 3 -1C 0.790861 -1 -1 0.790861 -1 3L 1 3C 1 1.89543 1.89543 1 3 1L 3 -1Z"/>
<path id="path1_stroke" d="M 0 0L 0 -1C -0.552285 -1 -1 -0.552285 -1 2.22045e-16L 0 0ZM 4 0L 5 0C 5 -0.552285 4.55228 -1 4 -1L 4 0ZM 0 1L 4 1L 4 -1L 0 -1L 0 1ZM 3 0L 3 7L 5 7L 5 0L 3 0ZM 1 7L 1 0L -1 0L -1 7L 1 7ZM 2 8C 1.44772 8 1 7.55228 1 7L -1 7C -1 8.65685 0.343146 10 2 10L 2 8ZM 3 7C 3 7.55228 2.55228 8 2 8L 2 10C 3.65685 10 5 8.65685 5 7L 3 7Z"/>
</defs>
</svg>
