<svg width="15" height="13" viewBox="0 0 15 13" version="1.1" xmlns="http://www.w3.org/2000/svg" xmlns:xlink="http://www.w3.org/1999/xlink">
<title>logout</title>
<desc>Created using Figma</desc>
<g id="Canvas" transform="translate(15589 9392)">
<g id="logout">
<g id="Vector">
<use xlink:href="#path0_fill" transform="matrix(-1 -1.22465e-16 1.22465e-16 -1 -15574 -9379)" fill="#F60225"/>
</g>
</g>
</g>
<defs>
<path id="path0_fill" d="M 11.6963 7.50189L 0.963896 7.50189C 0.836954 7.50203 0.711239 7.47618 0.593985 7.42582C 0.47673 7.37547 0.370249 7.30161 0.280668 7.2085C 0.191087 7.11539 0.120174 7.00485 0.0720084 6.88326C 0.0238425 6.76167 -0.000625802 6.63142 1.21611e-05 6.5C 1.21611e-05 5.94645 0.435501 5.49811 0.963411 5.49811L 11.6958 5.49811L 8.0256 1.69792C 7.84931 1.50896 7.75177 1.25588 7.75398 0.993188C 7.75618 0.730495 7.85796 0.479207 8.03739 0.293448C 8.21682 0.107689 8.45954 0.00232061 8.71328 3.78742e-05C 8.96703 -0.00224486 9.21148 0.0987406 9.394 0.281244L 14.7167 5.79166C 14.8981 5.97954 15 6.23433 15 6.5C 15 6.76567 14.8981 7.02046 14.7167 7.20834L 9.394 12.7188C 9.21148 12.9013 8.96703 13.0022 8.71328 13C 8.45954 12.9977 8.21682 12.8923 8.03739 12.7066C 7.85796 12.5208 7.75618 12.2695 7.75398 12.0068C 7.75177 11.7441 7.84931 11.491 8.0256 11.3021L 11.6963 7.50189Z"/>
</defs>
</svg>
