<svg width="41" height="41" viewBox="0 0 41 41" version="1.1" xmlns="http://www.w3.org/2000/svg" xmlns:xlink="http://www.w3.org/1999/xlink">
<title>insta-icon</title>
<desc>Created using Figma</desc>
<g id="Canvas" transform="translate(-8965 -1599)">
<g id="insta-icon">
<g id="XMLID 14">
<use xlink:href="#path0_fill" transform="translate(8965 1599.5)" fill="#FAFAFA"/>
</g>
<g id="XMLID 11">
<use xlink:href="#path1_fill" transform="translate(8974.84 1609.32)" fill="#FAFAFA"/>
</g>
<g id="XMLID 10">
<use xlink:href="#path2_fill" transform="translate(8993.85 1606.48)" fill="#FAFAFA"/>
</g>
</g>
</g>
<defs>
<path id="path0_fill" d="M 29.0678 0L 11.818 0C 5.28505 0 0 5.23519 0 11.7065L 0 28.7935C 0 35.2648 5.28505 40.5 11.818 40.5L 29.0678 40.5C 35.6007 40.5 40.8857 35.2648 40.8857 28.7935L 40.8857 11.7065C 40.8123 5.23519 35.5273 0 29.0678 0ZM 37.0687 29.0844C 37.0687 33.3743 33.5454 36.8645 29.2146 36.8645L 11.5977 36.8645C 7.26694 36.7917 3.74357 33.3743 3.74357 29.0844L 3.74357 11.561C 3.74357 7.27109 7.26694 3.85368 11.5977 3.85368L 29.288 3.85368C 33.6188 3.85368 37.1421 7.34381 37.1421 11.6338L 37.1421 29.0844L 37.0687 29.0844Z"/>
<path id="path1_fill" d="M 10.5701 0C 4.69782 0 -2.80012e-07 4.72621 -2.80012e-07 10.4704C -2.80012e-07 16.2145 4.77122 20.9408 10.5701 20.9408C 16.4424 20.9408 21.1402 16.2145 21.1402 10.4704C 21.1402 4.72621 16.4424 0 10.5701 0ZM 10.5701 17.3052C 6.75312 17.3052 3.67017 14.2513 3.67017 10.4704C 3.67017 6.68941 6.75312 3.63555 10.5701 3.63555C 14.3871 3.63555 17.47 6.68941 17.47 10.4704C 17.47 14.2513 14.3871 17.3052 10.5701 17.3052Z"/>
<path id="path2_fill" d="M 2.49572 4.94434C 3.87406 4.94434 4.99143 3.83752 4.99143 2.47217C 4.99143 1.10683 3.87406 0 2.49572 0C 1.11737 0 0 1.10683 0 2.47217C 0 3.83752 1.11737 4.94434 2.49572 4.94434Z"/>
</defs>
</svg>
