<svg width="27" height="27" viewBox="0 0 27 27" version="1.1" xmlns="http://www.w3.org/2000/svg" xmlns:xlink="http://www.w3.org/1999/xlink">
<title>insta-icon</title>
<desc>Created using Figma</desc>
<g id="Canvas" transform="translate(-1315 -476)">
<g id="insta-icon">
<g id="XMLID 14">
<use xlink:href="#path0_fill" transform="translate(1315 476)" fill="#E6A74D"/>
</g>
<g id="XMLID 11">
<use xlink:href="#path1_fill" transform="translate(1321.5 482.544)" fill="#E6A74D"/>
</g>
<g id="XMLID 10">
<use xlink:href="#path2_fill" transform="translate(1334.05 480.653)" fill="#E6A74D"/>
</g>
</g>
</g>
<defs>
<path id="path0_fill" d="M 19.1957 0L 7.80431 0C 3.49013 0 0 3.49013 0 7.80431L 0 19.1957C 0 23.5099 3.49013 27 7.80431 27L 19.1957 27C 23.5099 27 27 23.5099 27 19.1957L 27 7.80431C 26.9515 3.49013 23.4614 0 19.1957 0ZM 24.4794 19.3896C 24.4794 22.2495 22.1526 24.5763 19.2926 24.5763L 7.65889 24.5763C 4.79892 24.5278 2.47217 22.2495 2.47217 19.3896L 2.47217 7.70736C 2.47217 4.8474 4.79892 2.56912 7.65889 2.56912L 19.3411 2.56912C 22.2011 2.56912 24.5278 4.89587 24.5278 7.75583L 24.5278 19.3896L 24.4794 19.3896Z"/>
<path id="path1_fill" d="M 6.98025 0C 3.10233 0 -1.84914e-07 3.15081 -1.84914e-07 6.98025C -1.84914e-07 10.8097 3.15081 13.9605 6.98025 13.9605C 10.8582 13.9605 13.9605 10.8097 13.9605 6.98025C 13.9605 3.15081 10.8582 0 6.98025 0ZM 6.98025 11.5368C 4.4596 11.5368 2.4237 9.5009 2.4237 6.98025C 2.4237 4.4596 4.4596 2.4237 6.98025 2.4237C 9.5009 2.4237 11.5368 4.4596 11.5368 6.98025C 11.5368 9.5009 9.5009 11.5368 6.98025 11.5368Z"/>
<path id="path2_fill" d="M 1.64812 3.29623C 2.55834 3.29623 3.29623 2.55834 3.29623 1.64811C 3.29623 0.737886 2.55834 0 1.64812 0C 0.737887 0 0 0.737886 0 1.64811C 0 2.55834 0.737887 3.29623 1.64812 3.29623Z"/>
</defs>
</svg>
