<svg width="18" height="18" viewBox="0 0 18 18" version="1.1" xmlns="http://www.w3.org/2000/svg" xmlns:xlink="http://www.w3.org/1999/xlink">
<title>mail-at</title>
<desc>Created using Figma</desc>
<g id="Canvas" transform="translate(-124 -3199)">
<g id="mail-at">
<g id="Oval 17">
<use xlink:href="#path0_stroke" transform="translate(125 3200)" fill="#E6A74D"/>
</g>
<g id="Oval">
<use xlink:href="#path1_stroke" transform="translate(136.6 3204.8)" fill="#E6A74D"/>
</g>
<g id="Oval 17 Copy">
<use xlink:href="#path2_stroke" transform="translate(129.4 3204.4)" fill="#E6A74D"/>
</g>
</g>
</g>
<defs>
<path id="path0_stroke" d="M 15.25 9.6C 15.25 10.0142 15.5858 10.35 16 10.35C 16.4142 10.35 16.75 10.0142 16.75 9.6L 15.25 9.6ZM 8 16.75C 8.41421 16.75 8.75 16.4142 8.75 16C 8.75 15.5858 8.41421 15.25 8 15.25L 8 16.75ZM 16 9.6C 16.75 9.6 16.75 9.6 16.75 9.59999C 16.75 9.59998 16.75 9.59997 16.75 9.59995C 16.75 9.59992 16.75 9.59987 16.75 9.59981C 16.75 9.59968 16.75 9.59949 16.75 9.59924C 16.75 9.59874 16.75 9.59798 16.75 9.59698C 16.75 9.59499 16.75 9.59202 16.75 9.58812C 16.75 9.58033 16.75 9.56883 16.75 9.55399C 16.75 9.52432 16.75 9.48131 16.75 9.42797C 16.75 9.32129 16.75 9.17327 16.75 9.00793C 16.75 8.67724 16.75 8.27724 16.75 8L 15.25 8C 15.25 8.27724 15.25 8.67724 15.25 9.00793C 15.25 9.17327 15.25 9.32129 15.25 9.42797C 15.25 9.48131 15.25 9.52432 15.25 9.55399C 15.25 9.56883 15.25 9.58033 15.25 9.58812C 15.25 9.59202 15.25 9.59499 15.25 9.59698C 15.25 9.59798 15.25 9.59874 15.25 9.59924C 15.25 9.59949 15.25 9.59968 15.25 9.59981C 15.25 9.59987 15.25 9.59992 15.25 9.59995C 15.25 9.59997 15.25 9.59998 15.25 9.59999C 15.25 9.6 15.25 9.6 16 9.6ZM 16.75 8C 16.75 3.16751 12.8325 -0.75 8 -0.75L 8 0.75C 12.0041 0.75 15.25 3.99594 15.25 8L 16.75 8ZM 8 -0.75C 3.16751 -0.75 -0.75 3.16751 -0.75 8L 0.75 8C 0.75 3.99594 3.99594 0.75 8 0.75L 8 -0.75ZM -0.75 8C -0.75 12.8325 3.16751 16.75 8 16.75L 8 15.25C 3.99594 15.25 0.75 12.0041 0.75 8L -0.75 8Z"/>
<path id="path1_stroke" d="M 0.75 0C 0.75 -0.414214 0.414214 -0.75 0 -0.75C -0.414214 -0.75 -0.75 -0.414214 -0.75 0L 0.75 0ZM 5.15 4.8C 5.15 4.38579 4.81421 4.05 4.4 4.05C 3.98579 4.05 3.65 4.38579 3.65 4.8L 5.15 4.8ZM -0.75 0L -0.75 4.8L 0.75 4.8L 0.75 0L -0.75 0ZM -0.75 4.8C -0.75 6.38445 0.639628 7.55 2.2 7.55L 2.2 6.05C 1.33032 6.05 0.75 5.42469 0.75 4.8L -0.75 4.8ZM 2.2 7.55C 3.76037 7.55 5.15 6.38445 5.15 4.8L 3.65 4.8C 3.65 5.42469 3.06968 6.05 2.2 6.05L 2.2 7.55Z"/>
<path id="path2_stroke" d="M 3.6 7.95C 6.00244 7.95 7.95 6.00244 7.95 3.6L 6.45 3.6C 6.45 5.17401 5.17401 6.45 3.6 6.45L 3.6 7.95ZM 7.95 3.6C 7.95 1.19756 6.00244 -0.75 3.6 -0.75L 3.6 0.75C 5.17401 0.75 6.45 2.02599 6.45 3.6L 7.95 3.6ZM 3.6 -0.75C 1.19756 -0.75 -0.75 1.19756 -0.75 3.6L 0.75 3.6C 0.75 2.02599 2.02599 0.75 3.6 0.75L 3.6 -0.75ZM -0.75 3.6C -0.75 6.00244 1.19756 7.95 3.6 7.95L 3.6 6.45C 2.02599 6.45 0.75 5.17401 0.75 3.6L -0.75 3.6Z"/>
</defs>
</svg>
