<svg width="20" height="20" viewBox="0 0 20 20" version="1.1" xmlns="http://www.w3.org/2000/svg" xmlns:xlink="http://www.w3.org/1999/xlink">
<title>icons 304</title>
<desc>Created using Figma</desc>
<g id="Canvas" transform="translate(16778 10071)">
<g id="icons 304">
<g id="search 1">
<g id="Combined Shape">
<use xlink:href="#path0_fill" transform="translate(-16778 -10071)" fill="#F60225"/>
</g>
</g>
</g>
</g>
<defs>
<path id="path0_fill" d="M 14.5745 13.2888L 19.7337 18.4481C 20.0888 18.8031 20.0888 19.3787 19.7337 19.7337C 19.3787 20.0888 18.8031 20.0888 18.4481 19.7337L 13.2888 14.5745C 11.8891 15.6941 10.1136 16.3636 8.18182 16.3636C 3.66312 16.3636 0 12.7005 0 8.18182C 0 3.66312 3.66312 0 8.18182 0C 12.7005 0 16.3636 3.66312 16.3636 8.18182C 16.3636 10.1136 15.6941 11.8891 14.5745 13.2888ZM 8.18182 14.5455C 11.6964 14.5455 14.5455 11.6964 14.5455 8.18182C 14.5455 4.66728 11.6964 1.81818 8.18182 1.81818C 4.66728 1.81818 1.81818 4.66728 1.81818 8.18182C 1.81818 11.6964 4.66728 14.5455 8.18182 14.5455Z"/>
</defs>
</svg>
