<svg width="112" height="115" viewBox="0 0 112 115" version="1.1" xmlns="http://www.w3.org/2000/svg" xmlns:xlink="http://www.w3.org/1999/xlink">
<title>play-icon</title>
<desc>Created using Figma</desc>
<g id="Canvas" transform="translate(-962 -2634)">
<g id="play-icon">
<g id="Oval">
<use xlink:href="#path0_stroke" transform="translate(966 2638)" fill="#E6A74D"/>
</g>
<g id="Combined Shape">
<use xlink:href="#path1_stroke" transform="translate(1003.97 2667.63)" fill="#E6A74D"/>
</g>
</g>
</g>
<defs>
<path id="path0_stroke" d="M 52 110.5C 82.745 110.5 107.5 84.8857 107.5 53.5L 100.5 53.5C 100.5 81.2087 78.6926 103.5 52 103.5L 52 110.5ZM 107.5 53.5C 107.5 22.1143 82.745 -3.5 52 -3.5L 52 3.5C 78.6926 3.5 100.5 25.7913 100.5 53.5L 107.5 53.5ZM 52 -3.5C 21.255 -3.5 -3.5 22.1143 -3.5 53.5L 3.5 53.5C 3.5 25.7913 25.3073 3.5 52 3.5L 52 -3.5ZM -3.5 53.5C -3.5 84.8857 21.255 110.5 52 110.5L 52 103.5C 25.3073 103.5 3.5 81.2087 3.5 53.5L -3.5 53.5Z"/>
<path id="path1_stroke" d="M 3.35016 0.531117L 1.48047 3.48988L 3.35016 0.531117ZM 38.2331 22.5742L 40.1028 19.6154L 38.2331 22.5742ZM 38.2331 26.8082L 40.1028 29.767L 38.2331 26.8082ZM 3.35016 48.8512L 1.48047 45.8925L 3.35016 48.8512ZM 3.5 2.36421C 3.5 1.96553 3.61295 2.74393 2.66035 3.26409C 1.71682 3.7793 1.13452 3.27127 1.48047 3.48988L 5.21984 -2.42765C 3.72017 -3.37531 1.4628 -4.05758 -0.694406 -2.87966C -2.86068 -1.69678 -3.5 0.581304 -3.5 2.36421L 3.5 2.36421ZM 1.48047 3.48988L 36.3634 25.5329L 40.1028 19.6154L 5.21984 -2.42765L 1.48047 3.48988ZM 36.3634 25.5329C 36.5892 25.6756 36.1185 25.4564 36.119 24.6896C 36.1196 23.9249 36.5883 23.7073 36.3634 23.8494L 40.1028 29.767C 41.7235 28.7428 43.1173 26.9927 43.119 24.6949C 43.1208 22.395 41.7272 20.6419 40.1028 19.6154L 36.3634 25.5329ZM 36.3634 23.8494L 1.48047 45.8925L 5.21984 51.81L 40.1028 29.767L 36.3634 23.8494ZM 1.48047 45.8925C 1.12562 46.1167 1.70984 45.603 2.65887 46.1213C 3.61679 46.6445 3.5 47.4273 3.5 47.0181L -3.5 47.0181C -3.5 48.7955 -2.86683 51.0794 -0.696393 52.2648C 1.46515 53.4453 3.72445 52.755 5.21984 51.81L 1.48047 45.8925ZM 3.5 47.0181L 3.5 2.36421L -3.5 2.36421L -3.5 47.0181L 3.5 47.0181Z"/>
</defs>
</svg>
