<svg width="20" height="17" viewBox="0 0 20 17" version="1.1" xmlns="http://www.w3.org/2000/svg" xmlns:xlink="http://www.w3.org/1999/xlink">
<title>photo-icon</title>
<desc>Created using Figma</desc>
<g id="Canvas" transform="translate(-154 -2187)">
<g id="photo-icon">
<g id="Combined Shape">
<use xlink:href="#path0_stroke" transform="translate(155 2188.47)" fill="#E6A74D"/>
</g>
<g id="Oval">
<use xlink:href="#path1_stroke" transform="translate(160.85 2192.73)" fill="#E6A74D"/>
</g>
</g>
</g>
<defs>
<path id="path0_stroke" d="M 12.15 0L 12.9462 -0.605058C 12.7571 -0.853887 12.4625 -1 12.15 -1L 12.15 0ZM 5.85 0L 5.85 -1C 5.53747 -1 5.24292 -0.853887 5.05382 -0.605058L 5.85 0ZM 4.05 2.36858L 4.05 3.36858C 4.36253 3.36858 4.65708 3.22247 4.84618 2.97364L 4.05 2.36858ZM 13.95 2.36858L 13.1538 2.97364C 13.3429 3.22247 13.6375 3.36858 13.95 3.36858L 13.95 2.36858ZM 12.15 -1L 5.85 -1L 5.85 1L 12.15 1L 12.15 -1ZM 5.05382 -0.605058L 3.25382 1.76352L 4.84618 2.97364L 6.64618 0.605058L 5.05382 -0.605058ZM 4.05 1.36858L 1.35015 1.36858L 1.35015 3.36858L 4.05 3.36858L 4.05 1.36858ZM 1.35015 1.36858C 0.0107925 1.36858 -1 2.49553 -1 3.78551L 1 3.78551C 1 3.51039 1.20299 3.36858 1.35015 3.36858L 1.35015 1.36858ZM -1 3.78551L -1 12.7946L 1 12.7946L 1 3.78551L -1 3.78551ZM -1 12.7946C -1 14.0795 0.00358749 15.2115 1.34739 15.2115L 1.34739 13.2115C 1.20291 13.2115 1 13.0722 1 12.7946L -1 12.7946ZM 1.34739 15.2115L 16.6516 15.2115L 16.6516 13.2115L 1.34739 13.2115L 1.34739 15.2115ZM 16.6516 15.2115C 17.9953 15.2115 19 14.0803 19 12.7946L 17 12.7946C 17 13.0714 16.7973 13.2115 16.6516 13.2115L 16.6516 15.2115ZM 19 12.7946L 19 3.78551L 17 3.78551L 17 12.7946L 19 12.7946ZM 19 3.78551C 19 2.49553 17.9892 1.36858 16.6499 1.36858L 16.6499 3.36858C 16.797 3.36858 17 3.51039 17 3.78551L 19 3.78551ZM 16.6499 1.36858L 13.95 1.36858L 13.95 3.36858L 16.6499 3.36858L 16.6499 1.36858ZM 14.7462 1.76352L 12.9462 -0.605058L 11.3538 0.605058L 13.1538 2.97364L 14.7462 1.76352Z"/>
<path id="path1_stroke" d="M 3.15 7.63202C 5.48976 7.63202 7.3 5.65066 7.3 3.31601L 5.3 3.31601C 5.3 4.64413 4.28964 5.63202 3.15 5.63202L 3.15 7.63202ZM 7.3 3.31601C 7.3 0.981362 5.48976 -1 3.15 -1L 3.15 1C 4.28964 1 5.3 1.9879 5.3 3.31601L 7.3 3.31601ZM 3.15 -1C 0.810243 -1 -1 0.981362 -1 3.31601L 1 3.31601C 1 1.9879 2.01036 1 3.15 1L 3.15 -1ZM -1 3.31601C -1 5.65066 0.810243 7.63202 3.15 7.63202L 3.15 5.63202C 2.01036 5.63202 1 4.64413 1 3.31601L -1 3.31601Z"/>
</defs>
</svg>
