<svg width="22" height="40" viewBox="0 0 22 40" version="1.1" xmlns="http://www.w3.org/2000/svg" xmlns:xlink="http://www.w3.org/1999/xlink">
<title>arrow-right-1</title>
<desc>Created using Figma</desc>
<g id="Canvas" transform="translate(-59 -1009)">
<g id="arrow-right-1">
<g id="Rectangle 10">
<use xlink:href="#path0_stroke" transform="matrix(-1 1.22465e-16 -1.22465e-16 -1 79 1047)" fill="#E6A74D"/>
</g>
</g>
</g>
<defs>
<path id="path0_stroke" d="M 1.41421 -1.41421C 0.633165 -2.19526 -0.633165 -2.19526 -1.41421 -1.41421C -2.19526 -0.633165 -2.19526 0.633165 -1.41421 1.41421L 1.41421 -1.41421ZM 18 18L 19.4142 19.4142C 20.1953 18.6332 20.1953 17.3668 19.4142 16.5858L 18 18ZM -1.41421 34.5858C -2.19526 35.3668 -2.19526 36.6332 -1.41421 37.4142C -0.633165 38.1953 0.633165 38.1953 1.41421 37.4142L -1.41421 34.5858ZM -1.41421 1.41421L 16.5858 19.4142L 19.4142 16.5858L 1.41421 -1.41421L -1.41421 1.41421ZM 16.5858 16.5858L -1.41421 34.5858L 1.41421 37.4142L 19.4142 19.4142L 16.5858 16.5858Z"/>
</defs>
</svg>
