<svg width="20" height="20" viewBox="0 0 20 20" version="1.1" xmlns="http://www.w3.org/2000/svg" xmlns:xlink="http://www.w3.org/1999/xlink">
<title>coordinate</title>
<desc>Created using Figma</desc>
<g id="Canvas" transform="translate(-5160 -1284)">
<g id="coordinate">
<g id="Oval 31">
<use xlink:href="#path0_stroke" transform="translate(5162.8 1286.8)" fill="#453F40"/>
</g>
<g id="Oval 31 Copy">
<use xlink:href="#path1_stroke" transform="translate(5167.3 1291.3)" fill="#453F40"/>
</g>
<g id="Line">
<use xlink:href="#path2_stroke" transform="translate(5169.55 1285)" fill="#453F40"/>
</g>
<g id="Line Copy">
<use xlink:href="#path2_stroke" transform="translate(5169.55 1301.2)" fill="#453F40"/>
</g>
<g id="Line">
<use xlink:href="#path3_stroke" transform="translate(5161 1293.55)" fill="#453F40"/>
</g>
<g id="Line Copy 2">
<use xlink:href="#path3_stroke" transform="translate(5177.2 1293.55)" fill="#453F40"/>
</g>
</g>
</g>
<defs>
<path id="path0_stroke" d="M 7.2 15.15C 11.5907 15.15 15.15 11.5907 15.15 7.2L 13.65 7.2C 13.65 10.7622 10.7622 13.65 7.2 13.65L 7.2 15.15ZM 15.15 7.2C 15.15 2.80934 11.5907 -0.75 7.2 -0.75L 7.2 0.75C 10.7622 0.75 13.65 3.63776 13.65 7.2L 15.15 7.2ZM 7.2 -0.75C 2.80934 -0.75 -0.75 2.80934 -0.75 7.2L 0.75 7.2C 0.75 3.63776 3.63776 0.75 7.2 0.75L 7.2 -0.75ZM -0.75 7.2C -0.75 11.5907 2.80934 15.15 7.2 15.15L 7.2 13.65C 3.63776 13.65 0.75 10.7622 0.75 7.2L -0.75 7.2Z"/>
<path id="path1_stroke" d="M 2.7 6.15C 4.60538 6.15 6.15 4.60538 6.15 2.7L 4.65 2.7C 4.65 3.77696 3.77696 4.65 2.7 4.65L 2.7 6.15ZM 6.15 2.7C 6.15 0.794618 4.60538 -0.75 2.7 -0.75L 2.7 0.75C 3.77696 0.75 4.65 1.62304 4.65 2.7L 6.15 2.7ZM 2.7 -0.75C 0.794618 -0.75 -0.75 0.794618 -0.75 2.7L 0.75 2.7C 0.75 1.62304 1.62304 0.75 2.7 0.75L 2.7 -0.75ZM -0.75 2.7C -0.75 4.60538 0.794618 6.15 2.7 6.15L 2.7 4.65C 1.62304 4.65 0.75 3.77696 0.75 2.7L -0.75 2.7Z"/>
<path id="path2_stroke" d="M 1.2 0C 1.2 -0.414214 0.864214 -0.75 0.45 -0.75C 0.0357864 -0.75 -0.3 -0.414214 -0.3 0L 1.2 0ZM -0.3 1.8C -0.3 2.21421 0.0357864 2.55 0.45 2.55C 0.864214 2.55 1.2 2.21421 1.2 1.8L -0.3 1.8ZM -0.3 0L -0.3 1.8L 1.2 1.8L 1.2 0L -0.3 0Z"/>
<path id="path3_stroke" d="M 0 -0.3C -0.414214 -0.3 -0.75 0.0357864 -0.75 0.45C -0.75 0.864214 -0.414214 1.2 0 1.2L 0 -0.3ZM 1.8 1.2C 2.21421 1.2 2.55 0.864214 2.55 0.45C 2.55 0.0357864 2.21421 -0.3 1.8 -0.3L 1.8 1.2ZM 0 1.2L 1.8 1.2L 1.8 -0.3L 0 -0.3L 0 1.2Z"/>
</defs>
</svg>
