<svg width="17" height="15" viewBox="0 0 17 15" version="1.1" xmlns="http://www.w3.org/2000/svg" xmlns:xlink="http://www.w3.org/1999/xlink">
<title>logout</title>
<desc>Created using Figma</desc>
<g id="Canvas" transform="translate(16741 6285)">
<g id="logout">
<g id="Vector">
<use xlink:href="#path0_fill" transform="translate(-16741 -6285)" fill="#FAFAFA"/>
</g>
</g>
</g>
<defs>
<path id="path0_fill" d="M 13.2558 8.65603L 1.09242 8.65603C 0.948548 8.65619 0.806071 8.62636 0.673183 8.56826C 0.540294 8.51016 0.419616 8.42494 0.318091 8.3175C 0.216565 8.21006 0.136198 8.08252 0.0816095 7.94223C 0.0270215 7.80193 -0.000709242 7.65164 1.37826e-05 7.5C 1.37826e-05 6.86129 0.493568 6.34397 1.09187 6.34397L 13.2553 6.34397L 9.09568 1.95914C 8.89589 1.74111 8.78534 1.44909 8.78784 1.14599C 8.79034 0.842878 8.90569 0.552932 9.10904 0.338594C 9.31239 0.124256 9.58748 0.00267763 9.87506 4.3701e-05C 10.1626 -0.00259022 10.4397 0.113931 10.6465 0.324512L 16.6789 6.68269C 16.8845 6.89947 17 7.19346 17 7.5C 17 7.80654 16.8845 8.10053 16.6789 8.31732L 10.6465 14.6755C 10.4397 14.8861 10.1626 15.0026 9.87506 15C 9.58748 14.9973 9.31239 14.8757 9.10904 14.6614C 8.90569 14.4471 8.79034 14.1571 8.78784 13.854C 8.78534 13.5509 8.89589 13.2589 9.09568 13.0409L 13.2558 8.65603Z"/>
</defs>
</svg>
