<svg width="57" height="52" viewBox="0 0 57 52" version="1.1" xmlns="http://www.w3.org/2000/svg" xmlns:xlink="http://www.w3.org/1999/xlink">
<title>book-1</title>
<desc>Created using Figma</desc>
<g id="Canvas" transform="translate(-8009 -2266)">
<g id="book-1">
<g id="Combined Shape">
<use xlink:href="#path0_stroke" transform="translate(8011 2268)" fill="#E6A74D"/>
</g>
<g id="Combined Shape Copy">
<use xlink:href="#path1_stroke" transform="translate(8037.5 2268)" fill="#E6A74D"/>
</g>
</g>
</g>
<defs>
<path id="path0_stroke" d="M 5.07811 0.216404L 5.65593 -1.69831L 5.07811 0.216404ZM 26.5 6.68106L 28.5 6.68106C 28.5 5.79905 27.9222 5.02117 27.0778 4.76635L 26.5 6.68106ZM 26.5 48L 25.9222 49.9147C 26.528 50.0975 27.1846 49.9829 27.6926 49.6056C 28.2005 49.2282 28.5 48.6328 28.5 48L 26.5 48ZM 5.07811 41.5353L 5.65593 39.6206L 5.07811 41.5353ZM 2 4.01439C 2 3.07024 2.35013 2.54928 2.68721 2.2976C 3.02335 2.04661 3.61371 1.86357 4.50029 2.13112L 5.65593 -1.69831C 3.74671 -2.27447 1.79802 -2.03048 0.294056 -0.907531C -1.20897 0.214724 -2 2.01461 -2 4.01439L 2 4.01439ZM 4.50029 2.13112L 25.9222 8.59577L 27.0778 4.76635L 5.65593 -1.69831L 4.50029 2.13112ZM 24.5 6.68106L 24.5 48L 28.5 48L 28.5 6.68106L 24.5 6.68106ZM 27.0778 46.0853L 5.65593 39.6206L 4.50029 43.4501L 25.9222 49.9147L 27.0778 46.0853ZM 5.65593 39.6206C 3.7008 39.0306 2 36.7446 2 34.6724L -2 34.6724C -2 38.4981 0.846294 42.3474 4.50029 43.4501L 5.65593 39.6206ZM 2 34.6724L 2 4.01439L -2 4.01439L -2 34.6724L 2 34.6724Z"/>
<path id="path1_stroke" d="M 21.4219 0.216404L 20.8441 -1.69831L 21.4219 0.216404ZM 0 6.68106L -0.577819 4.76635C -1.42222 5.02117 -2 5.79905 -2 6.68106L 0 6.68106ZM 0 48L -2 48C -2 48.6328 -1.70054 49.2282 -1.19255 49.6056C -0.684565 49.9829 -0.0279831 50.0975 0.577819 49.9147L 0 48ZM 21.4219 41.5353L 20.8441 39.6206L 21.4219 41.5353ZM 28.5 4.01439C 28.5 2.01461 27.709 0.214724 26.2059 -0.907531C 24.702 -2.03048 22.7533 -2.27447 20.8441 -1.69831L 21.9997 2.13112C 22.8863 1.86357 23.4767 2.04661 23.8128 2.2976C 24.1499 2.54928 24.5 3.07024 24.5 4.01439L 28.5 4.01439ZM 20.8441 -1.69831L -0.577819 4.76635L 0.577819 8.59577L 21.9997 2.13112L 20.8441 -1.69831ZM -2 6.68106L -2 48L 2 48L 2 6.68106L -2 6.68106ZM 0.577819 49.9147L 21.9997 43.4501L 20.8441 39.6206L -0.577819 46.0853L 0.577819 49.9147ZM 21.9997 43.4501C 25.6537 42.3474 28.5 38.4981 28.5 34.6724L 24.5 34.6724C 24.5 36.7446 22.7992 39.0306 20.8441 39.6206L 21.9997 43.4501ZM 28.5 34.6724L 28.5 4.01439L 24.5 4.01439L 24.5 34.6724L 28.5 34.6724Z"/>
</defs>
</svg>
